<svg width="97" height="97" viewBox="0 0 97 97" fill="none" xmlns="http://www.w3.org/2000/svg"><circle cx="48.5" cy="48.5" r="48.5" fill="#DE5D37"/><path d="m31.064 40.8-.128.72.288.048c.848.144.992.464.768 1.744l-1.072 6.176c-.256 1.408-.592 1.616-1.376 1.744l-.304.048-.144.72h4.352c5.168 0 7.856-2.72 7.856-6.864 0-3.104-2.176-4.336-5.568-4.336h-4.672zm2.176 10.192 1.632-9.184h.576c2.112 0 3.008.944 3.008 3.376 0 3.392-1.696 5.808-4.944 5.808h-.272zm14.9-7.328c-1.04 0-2.16 1.44-3.536 5.664l1.424-5.568-.16-.064-3.456 1.408-.032.176.832.592L42.204 52h2.384l.288-1.76c.592-1.664 1.2-3.104 1.872-4.16 1.072.4 2.16-.208 2.16-1.536 0-.576-.304-.88-.768-.88zm9.627 6.048c-.496.88-.896 1.28-1.232 1.28-.288 0-.304-.336-.176-1.056l1.056-6.032h-.448l-1.632.944c-.368-.736-.96-1.184-1.952-1.184-2.464 0-4.512 2.528-4.512 5.568 0 2.032 1.088 3.024 2.384 3.024 1.312 0 2.32-.864 3.088-2.448-.32 1.472.08 2.448 1.184 2.448.928 0 2-.576 2.72-2.256l-.48-.288zm-5.504 1.312c-.528 0-.72-.624-.72-1.6 0-2.528 1.104-4.704 2.352-4.704.416 0 .704.256.896.736l-.48 2.656c-.608 1.728-1.424 2.912-2.048 2.912zm12.51-7.12c-.385-.16-.833-.24-1.36-.24-2.145 0-3.793 1.424-3.793 3.296 0 .8.352 1.488 1.056 1.92-1.104.352-1.68.832-1.68 1.632 0 .752.544 1.248 1.632 1.472-1.888.256-2.928.784-2.928 1.616 0 1.104 1.344 1.68 3.728 1.68 3.12 0 5.056-.944 5.056-2.816 0-1.296-1.088-1.76-2.448-1.952l-2.608-.352c-.464-.064-.688-.16-.688-.4 0-.208.256-.4.672-.576.304.08.64.128 1.008.128 2.16 0 3.856-1.52 3.856-3.296 0-.416-.112-.832-.352-1.184h1.728l.16-.928h-3.04zm-2.177 4.512c-.544 0-.864-.528-.864-1.36 0-1.344.672-2.48 1.504-2.48.576 0 .896.528.896 1.312 0 1.328-.688 2.528-1.536 2.528zm1.92 4.688c0 .864-1.168 1.28-2.512 1.28-1.44 0-1.92-.4-1.92-.928 0-.512.496-1.024 1.504-1.328l1.808.256c.768.112 1.12.272 1.12.72z" fill="#FEFBF3"/></svg>